<?xml version="1.0" encoding="utf-8"?>
<!-- Generator: Adobe Illustrator 26.1.0, SVG Export Plug-In . SVG Version: 6.00 Build 0)  -->
<svg version="1.1" id="Layer_1" xmlns="http://www.w3.org/2000/svg" xmlns:xlink="http://www.w3.org/1999/xlink" x="0px" y="0px"
	 viewBox="0 0 375.71 377.52" style="enable-background:new 0 0 375.71 377.52;" xml:space="preserve">
<style type="text/css">
	.st0{fill:#F6A9C3;}
	.st1{fill:#CC92AA;}
	.st2{fill:#ED2024;}
	.st3{fill:#6D6D6D;}
</style>
<path class="st0" d="M230.15,141.12c-10.84-76.25-42.33-61.57-42.33-61.57s-31.49-14.68-42.33,61.57
	c-10.84,76.25-26.33,109.29,16,108.77l0.52,40.26c0,0-18.58,7.74-17.03,14.97s38.2,3.61,38.2,3.61v-59.36l4.65-0.52l4.65,0.52v59.36
	c0,0,36.65,3.61,38.2-3.61c1.55-7.23-17.03-14.97-17.03-14.97l0.52-40.26C256.48,250.41,240.99,217.37,230.15,141.12z"/>
<path class="st1" d="M136.87,241.04c0,0,58.42-33.56,101.92,0H136.87z"/>
<path class="st2" d="M136.87,194.03c0,0-5.41,40.6,0,46.25c0,0,63.58-17.36,101.92,0c0,0,7.57-0.58,0-46.25H136.87z"/>
<circle class="st0" cx="187.83" cy="201.88" r="2.45"/>
<circle class="st0" cx="187.83" cy="212.21" r="2.45"/>
<circle class="st0" cx="187.83" cy="222.53" r="2.45"/>
<path class="st2" d="M162.02,290.15h21.16v18.58c0,0-50.62,4.63-35.92-9.29L162.02,290.15z"/>
<path class="st2" d="M213.75,290.15h-21.16v18.58c0,0,50.62,4.63,35.92-9.29L213.75,290.15z"/>
<polygon class="st2" points="188.31,60.12 179.02,80.61 197.6,80.74 "/>
<circle class="st3" cx="173.39" cy="117.45" r="3.45"/>
<circle class="st3" cx="201.05" cy="117.45" r="3.45"/>
<path class="st2" d="M226.98,132.71v-0.8h-4.16h-18.08h-51.91c-5.37,0-9.72,3.59-9.72,8.01v10.71c0,4.42,4.35,8.01,9.72,8.01h51.91
	v27.5h22.24v-28.29c3.28-1.29,5.56-4.02,5.56-7.21v-10.71C232.55,136.73,230.26,134,226.98,132.71z"/>
<rect x="206.01" y="171.23" class="st0" width="1.16" height="14.91"/>
<rect x="209.1" y="171.23" class="st0" width="1.16" height="14.91"/>
<rect x="212.01" y="171.23" class="st0" width="1.16" height="14.91"/>
<rect x="215.1" y="171.23" class="st0" width="1.16" height="14.91"/>
<rect x="220.91" y="171.23" class="st0" width="1.16" height="14.91"/>
<rect x="218.01" y="171.23" class="st0" width="1.16" height="14.91"/>
<rect x="223.81" y="171.23" class="st0" width="1.16" height="14.91"/>
<polygon class="st3" points="176.84,128.85 196.15,128.85 194.79,131.91 179.02,131.91 "/>
</svg>
