<?xml version="1.0" encoding="utf-8"?>
<!-- Generator: Adobe Illustrator 26.1.0, SVG Export Plug-In . SVG Version: 6.00 Build 0)  -->
<svg version="1.1" id="Layer_1" xmlns="http://www.w3.org/2000/svg" xmlns:xlink="http://www.w3.org/1999/xlink" x="0px" y="0px"
	 viewBox="0 0 375.71 377.52" style="enable-background:new 0 0 375.71 377.52;" xml:space="preserve">
<style type="text/css">
	.st0{fill:#010101;}
	.st1{fill:#FFFFFF;}
	.st2{fill:#FFDAA5;}
	.st3{fill:#644B2E;}
</style>
<path class="st0" d="M236.03,162.09l-36.55,2.08l-11.63,41.94l-11.63-41.94l-36.55-2.08c-36.96,63.54,21.18,97.18,21.18,97.18
	l0.42,39.04l-3.74,0.83c-7.06,9.55-7.06,7.48,12.04,7.48s12.46-8.72,12.46-8.72c-2.08-43.19,5.81-31.98,5.81-31.98
	s7.89-11.21,5.81,31.98c0,0-6.64,8.72,12.46,8.72s19.1,2.08,12.04-7.48l-3.74-0.83l0.42-39.04
	C214.85,259.27,272.99,225.63,236.03,162.09z"/>
<polygon class="st1" points="176.23,164.16 199.49,164.16 187.86,206.11 "/>
<path class="st0" d="M187.79,164.74c0,0-4.58-1.25-4.16,7.89c0.42,9.14-2.9,30.32,4.16,32.81c7.06,2.49,4.12-25.75,4.12-25.75
	S192.51,163.83,187.79,164.74z"/>
<g>
	<path class="st2" d="M141.6,123.88l-1.91,38.21l36.55,2.08l11.56,0.57l0.07-91.52C187.86,73.21,144.5,65.32,141.6,123.88z"/>
	<path class="st2" d="M234.12,123.88c-2.91-58.56-46.26-50.67-46.26-50.67l0.07,91.52l11.56-0.57l36.55-2.08L234.12,123.88z"/>
</g>
<path class="st0" d="M187.86,70.72c0,0-51.5,5.81-50.25,41.11h50.25h50.25C239.35,76.54,187.86,70.72,187.86,70.72z"/>
<rect x="147.83" y="103.74" class="st2" width="3.32" height="20.56"/>
<rect x="158.62" y="103.74" class="st2" width="3.32" height="20.56"/>
<rect x="169.42" y="103.74" class="st2" width="3.32" height="20.56"/>
<rect x="178.79" y="103.74" class="st2" width="3.32" height="20.56"/>
<rect x="187.86" y="104.26" class="st2" width="3.32" height="20.56"/>
<rect x="197.82" y="103.74" class="st2" width="3.32" height="20.56"/>
<rect x="208.62" y="103.74" class="st2" width="3.32" height="20.56"/>
<rect x="220.09" y="103.74" class="st2" width="3.32" height="20.56"/>
<circle class="st1" cx="187.86" cy="124.82" r="10.34"/>
<circle class="st3" cx="188.08" cy="124.82" r="7.64"/>
<rect x="172.81" y="139.66" class="st0" width="30.52" height="5.29"/>
</svg>
