<?xml version="1.0" encoding="utf-8"?>
<!-- Generator: Adobe Illustrator 26.1.0, SVG Export Plug-In . SVG Version: 6.00 Build 0)  -->
<svg version="1.1" id="Layer_1" xmlns="http://www.w3.org/2000/svg" xmlns:xlink="http://www.w3.org/1999/xlink" x="0px" y="0px"
	 viewBox="0 0 375.71 377.52" style="enable-background:new 0 0 375.71 377.52;" xml:space="preserve">
<style type="text/css">
	.st0{fill:#416AB3;}
	.st1{fill:#8FB1DD;}
	.st2{fill:#010101;}
	.st3{fill:#FFFFFF;}
</style>
<path class="st0" d="M241.11,224.33c0,0,1.42-15.27-11.34-29.18l-0.35-50.89c0,0-5.22-56.07-42.72-47.42
	c-35.91-8.65-40.91,47.42-40.91,47.42l-0.34,50.89c-12.21,13.91-10.86,29.18-10.86,29.18c-3.05,30.2,19,44.45,19,44.45l4.62,32.91
	l4.54,0.68l0.34,6.11c-6.11,0.68-4.75,6.11-4.75,6.11c23.75,6.79,24.09-2.38,24.09-2.38v-10.18h4.12h0.29h4.31v10.18
	c0,0,0.35,9.16,25.16,2.38c0,0,1.42-5.43-4.96-6.11l0.35-6.11l4.74-0.68l4.83-32.91C221.27,268.78,244.3,254.53,241.11,224.33z"/>
<path class="st1" d="M234.42,114.23c0,0-4.07-13.23-18.58-12.47c0,0,6.46-32.11-20.48-36.84c0,0,0,0-0.01,0
	c-7.55-2.4-15.02,0-15.02,0l0,0c-26.94,4.73-20.48,36.84-20.48,36.84c-14.5-0.76-18.58,12.47-18.58,12.47s-6.62,28.75,15.52,28.5
	c20.79-0.24,29.9-20.66,30.94-23.16h0.21c1.04,2.5,10.16,22.92,30.94,23.16C241.04,142.99,234.42,114.23,234.42,114.23z"/>
<path class="st1" d="M230.24,194.81c-1.83-0.61-39.57,22.57-44.13,24.74c-4.23-2.15-39.63-25.35-41.34-24.74
	c-9.5,3.39-10.52,29.86-10.52,29.86l14.93-0.34l8.82,78.04h28.06h0.1h29.95l9.42-78.04l15.93,0.34
	C241.46,224.67,240.38,198.21,230.24,194.81z"/>
<path class="st2" d="M154.27,266.74c0,0-3.73,3.73,3.05,4.07c6.79,0.34,61.07,0,61.07,0s9.5-2.71,0-4.07
	C208.89,265.38,154.27,266.74,154.27,266.74z"/>
<circle class="st3" cx="174.13" cy="157.37" r="3.3"/>
<circle class="st3" cx="201.97" cy="157.37" r="3.3"/>
<polyline class="st3" points="187.86,184.03 174.66,171.44 201.05,171.44 "/>
</svg>
